<?xml version="1.0" standalone="no"?>
<!DOCTYPE svg PUBLIC "-//W3C//DTD SVG 20010904//EN"
 "http://www.w3.org/TR/2001/REC-SVG-20010904/DTD/svg10.dtd">
<svg version="1.0" xmlns="http://www.w3.org/2000/svg"
 width="600.000000pt" height="327.000000pt" viewBox="0 0 600.000000 327.000000"
 preserveAspectRatio="xMidYMid meet">
<g transform="translate(0.000000,327.000000) scale(0.100000,-0.100000)"
fill="#1a56db" stroke="none">
<path d="M2563 2201 c-22 -16 -61 -57 -88 -92 -105 -139 -109 -225 -13 -301
22 -17 103 -60 180 -95 166 -76 224 -113 338 -220 103 -95 159 -134 253 -178
110 -51 178 -66 332 -72 137 -6 139 -7 105 -22 -25 -11 -70 -15 -160 -15 -103
-1 -138 3 -200 23 -109 34 -215 92 -300 166 -215 187 -193 173 -460 298 -85
40 -162 103 -188 152 l-17 34 -33 -30 c-19 -17 -37 -43 -42 -59 -12 -42 24
-106 85 -153 73 -55 237 -132 334 -156 101 -25 150 -53 239 -133 76 -69 136
-112 190 -136 36 -16 29 -17 -260 -23 -341 -8 -475 -16 -460 -31 11 -11 520
-27 862 -28 358 0 469 20 547 97 37 36 43 49 43 83 0 49 -20 91 -54 114 -14 9
-70 33 -125 55 -55 21 -122 55 -149 75 -60 44 -136 141 -230 296 -93 153 -121
168 -247 134 -112 -30 -144 -34 -198 -23 -77 17 -120 66 -142 161 -9 40 -24
81 -32 90 -23 26 -65 22 -110 -11z m71 -57 c3 -9 6 -25 6 -37 0 -40 47 -123
89 -158 73 -64 164 -75 305 -37 102 26 128 21 162 -34 15 -23 23 -43 18 -45
-5 -2 -24 -12 -41 -23 -35 -21 -41 -41 -19 -59 13 -11 52 0 96 26 6 4 44 -57
38 -61 -1 -1 -15 -10 -30 -19 -31 -19 -37 -54 -12 -64 9 -3 31 2 51 11 34 16
35 16 53 -6 25 -29 25 -40 0 -56 -24 -15 -26 -50 -3 -59 9 -4 30 1 46 11 29
16 31 16 56 -7 48 -44 89 -67 193 -108 57 -22 112 -49 123 -60 18 -18 19 -20
2 -36 -15 -16 -37 -18 -165 -17 -131 1 -156 4 -227 27 -114 38 -167 82 -241
200 -100 160 -135 187 -275 207 -146 22 -158 31 -213 161 -25 57 -51 99 -77
125 -21 21 -39 42 -39 46 0 11 78 88 89 88 5 0 12 -7 15 -16z"/>
<path d="M3038 2156 c-45 -30 -78 -82 -78 -122 0 -19 2 -34 4 -34 2 0 32 7 66
16 35 9 82 14 106 12 24 -2 44 -2 44 0 0 18 -79 142 -92 146 -10 2 -32 -6 -50
-18z"/>
<path d="M2119 1743 c54 -148 153 -253 290 -308 33 -14 110 -38 171 -55 61
-17 141 -44 178 -60 l67 -30 -35 30 c-48 40 -125 80 -250 130 -186 73 -297
149 -372 252 -68 95 -69 96 -49 41z"/>
</g>
</svg>
